<svg width="164" height="36" viewBox="0 0 164 36" fill="none" xmlns="http://www.w3.org/2000/svg">
<g filter="url(#filter0_d_812_79)">
<mask id="path-1-outside-1_812_79" maskUnits="userSpaceOnUse" x="4.76764" y="0.975128" width="155" height="27" fill="black">
<rect fill="white" x="4.76764" y="0.975128" width="155" height="27"/>
<path d="M5.76764 16.7527C5.76764 14.8854 6.10032 13.2542 6.76569 11.859C7.45252 10.4639 8.37544 9.39074 9.53447 8.63952C10.715 7.8883 12.0242 7.51269 13.4623 7.51269C14.7072 7.51269 15.7803 7.75952 16.6818 8.25318C17.5833 8.74684 18.2808 9.4122 18.7745 10.2493V7.73805H25.0847V25.7995H18.7745V23.2883C18.2808 24.1254 17.5725 24.7907 16.6496 25.2844C15.7481 25.7781 14.6857 26.0249 13.4623 26.0249C12.0242 26.0249 10.715 25.6493 9.53447 24.8981C8.37544 24.1468 7.45252 23.0737 6.76569 21.6785C6.10032 20.262 5.76764 18.62 5.76764 16.7527ZM18.7745 16.7527C18.7745 15.5937 18.4525 14.6815 17.8086 14.0161C17.1862 13.3507 16.4135 13.0181 15.4906 13.0181C14.5462 13.0181 13.7628 13.3507 13.1403 14.0161C12.5179 14.66 12.2067 15.5722 12.2067 16.7527C12.2067 17.9117 12.5179 18.8346 13.1403 19.5215C13.7628 20.1868 14.5462 20.5195 15.4906 20.5195C16.4135 20.5195 17.1862 20.1868 17.8086 19.5215C18.4525 18.8561 18.7745 17.9332 18.7745 16.7527Z"/>
<path d="M34.9907 1.97513V25.7995H28.6805V1.97513H34.9907Z"/>
<path d="M46.9872 26.0249C45.1843 26.0249 43.5638 25.6493 42.1257 24.8981C40.7092 24.1468 39.5931 23.0737 38.7775 21.6785C37.9618 20.2834 37.554 18.6415 37.554 16.7527C37.554 14.8854 37.9618 13.2542 38.7775 11.859C39.6145 10.4639 40.7414 9.39074 42.1579 8.63952C43.596 7.8883 45.2165 7.51269 47.0194 7.51269C48.8223 7.51269 50.4321 7.8883 51.8487 8.63952C53.2867 9.39074 54.4135 10.4639 55.2292 11.859C56.0662 13.2542 56.4848 14.8854 56.4848 16.7527C56.4848 18.62 56.0662 20.262 55.2292 21.6785C54.4135 23.0737 53.2867 24.1468 51.8487 24.8981C50.4106 25.6493 48.7901 26.0249 46.9872 26.0249ZM46.9872 20.5517C47.8672 20.5517 48.597 20.2298 49.1765 19.5859C49.7775 18.9205 50.0779 17.9761 50.0779 16.7527C50.0779 15.5293 49.7775 14.5956 49.1765 13.9517C48.597 13.3078 47.8779 12.9859 47.0194 12.9859C46.1609 12.9859 45.4418 13.3078 44.8623 13.9517C44.2828 14.5956 43.9931 15.5293 43.9931 16.7527C43.9931 17.9976 44.2721 18.942 44.8301 19.5859C45.3882 20.2298 46.1072 20.5517 46.9872 20.5517Z"/>
<path d="M58.0218 16.7527C58.0218 14.8854 58.4082 13.2542 59.1809 11.859C59.9535 10.4639 61.0267 9.39074 62.4004 8.63952C63.7955 7.8883 65.3838 7.51269 67.1652 7.51269C69.4618 7.51269 71.3935 8.14586 72.9604 9.4122C74.5272 10.6571 75.536 12.4063 75.9867 14.66H69.2901C68.9038 13.4795 68.1526 12.8893 67.0365 12.8893C66.2423 12.8893 65.6091 13.222 65.137 13.8873C64.6862 14.5312 64.4609 15.4864 64.4609 16.7527C64.4609 18.019 64.6862 18.9849 65.137 19.6503C65.6091 20.3156 66.2423 20.6483 67.0365 20.6483C68.174 20.6483 68.9253 20.0581 69.2901 18.8776H75.9867C75.536 21.1098 74.5272 22.859 72.9604 24.1254C71.3935 25.3917 69.4618 26.0249 67.1652 26.0249C65.3838 26.0249 63.7955 25.6493 62.4004 24.8981C61.0267 24.1468 59.9535 23.0737 59.1809 21.6785C58.4082 20.2834 58.0218 18.6415 58.0218 16.7527Z"/>
<path d="M77.5779 16.7527C77.5779 14.8854 77.9105 13.2542 78.5759 11.859C79.2627 10.4639 80.1857 9.39074 81.3447 8.63952C82.5252 7.8883 83.8344 7.51269 85.2725 7.51269C86.5174 7.51269 87.5905 7.75952 88.492 8.25318C89.3935 8.74684 90.091 9.4122 90.5847 10.2493V7.73805H96.8949V25.7995H90.5847V23.2883C90.091 24.1254 89.3827 24.7907 88.4598 25.2844C87.5583 25.7781 86.4959 26.0249 85.2725 26.0249C83.8344 26.0249 82.5252 25.6493 81.3447 24.8981C80.1857 24.1468 79.2627 23.0737 78.5759 21.6785C77.9105 20.262 77.5779 18.62 77.5779 16.7527ZM90.5847 16.7527C90.5847 15.5937 90.2627 14.6815 89.6188 14.0161C88.9964 13.3507 88.2237 13.0181 87.3008 13.0181C86.3564 13.0181 85.573 13.3507 84.9505 14.0161C84.3281 14.66 84.0169 15.5722 84.0169 16.7527C84.0169 17.9117 84.3281 18.8346 84.9505 19.5215C85.573 20.1868 86.3564 20.5195 87.3008 20.5195C88.2237 20.5195 88.9964 20.1868 89.6188 19.5215C90.2627 18.8561 90.5847 17.9332 90.5847 16.7527Z"/>
<path d="M99.4605 16.7527C99.4605 14.8854 99.7932 13.2542 100.459 11.859C101.145 10.4639 102.079 9.39074 103.259 8.63952C104.44 7.8883 105.749 7.51269 107.187 7.51269C108.346 7.51269 109.377 7.75952 110.278 8.25318C111.201 8.72537 111.92 9.38001 112.435 10.2171V1.97513H118.778V25.7995H112.435V23.2883C111.941 24.1254 111.244 24.7907 110.342 25.2844C109.441 25.7781 108.379 26.0249 107.155 26.0249C105.717 26.0249 104.408 25.6493 103.227 24.8981C102.068 24.1468 101.145 23.0737 100.459 21.6785C99.7932 20.262 99.4605 18.62 99.4605 16.7527ZM112.467 16.7527C112.467 15.5937 112.145 14.6815 111.501 14.0161C110.879 13.3507 110.106 13.0181 109.183 13.0181C108.239 13.0181 107.456 13.3507 106.833 14.0161C106.211 14.66 105.899 15.5722 105.899 16.7527C105.899 17.9117 106.211 18.8346 106.833 19.5215C107.456 20.1868 108.239 20.5195 109.183 20.5195C110.106 20.5195 110.879 20.1868 111.501 19.5215C112.145 18.8561 112.467 17.9332 112.467 16.7527Z"/>
<path d="M130.776 26.0249C128.973 26.0249 127.353 25.6493 125.915 24.8981C124.498 24.1468 123.382 23.0737 122.567 21.6785C121.751 20.2834 121.343 18.6415 121.343 16.7527C121.343 14.8854 121.751 13.2542 122.567 11.859C123.404 10.4639 124.53 9.39074 125.947 8.63952C127.385 7.8883 129.006 7.51269 130.808 7.51269C132.611 7.51269 134.221 7.8883 135.638 8.63952C137.076 9.39074 138.203 10.4639 139.018 11.859C139.855 13.2542 140.274 14.8854 140.274 16.7527C140.274 18.62 139.855 20.262 139.018 21.6785C138.203 23.0737 137.076 24.1468 135.638 24.8981C134.2 25.6493 132.579 26.0249 130.776 26.0249ZM130.776 20.5517C131.656 20.5517 132.386 20.2298 132.966 19.5859C133.567 18.9205 133.867 17.9761 133.867 16.7527C133.867 15.5293 133.567 14.5956 132.966 13.9517C132.386 13.3078 131.667 12.9859 130.808 12.9859C129.95 12.9859 129.231 13.3078 128.651 13.9517C128.072 14.5956 127.782 15.5293 127.782 16.7527C127.782 17.9976 128.061 18.942 128.619 19.5859C129.177 20.2298 129.896 20.5517 130.776 20.5517Z"/>
<path d="M150.536 26.0249C148.905 26.0249 147.445 25.7566 146.157 25.22C144.891 24.662 143.882 23.9107 143.131 22.9664C142.401 22.0005 141.993 20.9166 141.907 19.7146H148.025C148.11 20.2942 148.379 20.7449 148.829 21.0668C149.28 21.3888 149.838 21.5498 150.504 21.5498C151.019 21.5498 151.426 21.4424 151.727 21.2278C152.027 21.0132 152.178 20.7342 152.178 20.3907C152.178 19.94 151.931 19.6073 151.437 19.3927C150.944 19.1781 150.128 18.942 148.99 18.6844C147.703 18.4268 146.629 18.1371 145.771 17.8151C144.912 17.4932 144.161 16.9673 143.517 16.2376C142.895 15.5078 142.584 14.5205 142.584 13.2756C142.584 12.2024 142.873 11.2366 143.453 10.3781C144.032 9.49805 144.88 8.80049 145.996 8.28537C147.134 7.77025 148.497 7.51269 150.085 7.51269C152.446 7.51269 154.303 8.0922 155.655 9.25123C157.007 10.4103 157.79 11.9342 158.005 13.8229H152.307C152.199 13.2434 151.942 12.8034 151.534 12.5029C151.147 12.181 150.622 12.02 149.956 12.02C149.441 12.02 149.044 12.1166 148.765 12.3098C148.507 12.5029 148.379 12.7712 148.379 13.1146C148.379 13.5439 148.626 13.8766 149.119 14.1127C149.613 14.3273 150.407 14.5527 151.502 14.7888C152.811 15.0678 153.895 15.379 154.753 15.7224C155.633 16.0659 156.395 16.6239 157.039 17.3966C157.705 18.1478 158.037 19.1781 158.037 20.4873C158.037 21.539 157.726 22.4834 157.104 23.3205C156.503 24.1576 155.633 24.8229 154.496 25.3166C153.38 25.7888 152.06 26.0249 150.536 26.0249Z"/>
</mask>
<path d="M5.76764 16.7527C5.76764 14.8854 6.10032 13.2542 6.76569 11.859C7.45252 10.4639 8.37544 9.39074 9.53447 8.63952C10.715 7.8883 12.0242 7.51269 13.4623 7.51269C14.7072 7.51269 15.7803 7.75952 16.6818 8.25318C17.5833 8.74684 18.2808 9.4122 18.7745 10.2493V7.73805H25.0847V25.7995H18.7745V23.2883C18.2808 24.1254 17.5725 24.7907 16.6496 25.2844C15.7481 25.7781 14.6857 26.0249 13.4623 26.0249C12.0242 26.0249 10.715 25.6493 9.53447 24.8981C8.37544 24.1468 7.45252 23.0737 6.76569 21.6785C6.10032 20.262 5.76764 18.62 5.76764 16.7527ZM18.7745 16.7527C18.7745 15.5937 18.4525 14.6815 17.8086 14.0161C17.1862 13.3507 16.4135 13.0181 15.4906 13.0181C14.5462 13.0181 13.7628 13.3507 13.1403 14.0161C12.5179 14.66 12.2067 15.5722 12.2067 16.7527C12.2067 17.9117 12.5179 18.8346 13.1403 19.5215C13.7628 20.1868 14.5462 20.5195 15.4906 20.5195C16.4135 20.5195 17.1862 20.1868 17.8086 19.5215C18.4525 18.8561 18.7745 17.9332 18.7745 16.7527Z" fill="black"/>
<path d="M34.9907 1.97513V25.7995H28.6805V1.97513H34.9907Z" fill="black"/>
<path d="M46.9872 26.0249C45.1843 26.0249 43.5638 25.6493 42.1257 24.8981C40.7092 24.1468 39.5931 23.0737 38.7775 21.6785C37.9618 20.2834 37.554 18.6415 37.554 16.7527C37.554 14.8854 37.9618 13.2542 38.7775 11.859C39.6145 10.4639 40.7414 9.39074 42.1579 8.63952C43.596 7.8883 45.2165 7.51269 47.0194 7.51269C48.8223 7.51269 50.4321 7.8883 51.8487 8.63952C53.2867 9.39074 54.4135 10.4639 55.2292 11.859C56.0662 13.2542 56.4848 14.8854 56.4848 16.7527C56.4848 18.62 56.0662 20.262 55.2292 21.6785C54.4135 23.0737 53.2867 24.1468 51.8487 24.8981C50.4106 25.6493 48.7901 26.0249 46.9872 26.0249ZM46.9872 20.5517C47.8672 20.5517 48.597 20.2298 49.1765 19.5859C49.7775 18.9205 50.0779 17.9761 50.0779 16.7527C50.0779 15.5293 49.7775 14.5956 49.1765 13.9517C48.597 13.3078 47.8779 12.9859 47.0194 12.9859C46.1609 12.9859 45.4418 13.3078 44.8623 13.9517C44.2828 14.5956 43.9931 15.5293 43.9931 16.7527C43.9931 17.9976 44.2721 18.942 44.8301 19.5859C45.3882 20.2298 46.1072 20.5517 46.9872 20.5517Z" fill="black"/>
<path d="M58.0218 16.7527C58.0218 14.8854 58.4082 13.2542 59.1809 11.859C59.9535 10.4639 61.0267 9.39074 62.4004 8.63952C63.7955 7.8883 65.3838 7.51269 67.1652 7.51269C69.4618 7.51269 71.3935 8.14586 72.9604 9.4122C74.5272 10.6571 75.536 12.4063 75.9867 14.66H69.2901C68.9038 13.4795 68.1526 12.8893 67.0365 12.8893C66.2423 12.8893 65.6091 13.222 65.137 13.8873C64.6862 14.5312 64.4609 15.4864 64.4609 16.7527C64.4609 18.019 64.6862 18.9849 65.137 19.6503C65.6091 20.3156 66.2423 20.6483 67.0365 20.6483C68.174 20.6483 68.9253 20.0581 69.2901 18.8776H75.9867C75.536 21.1098 74.5272 22.859 72.9604 24.1254C71.3935 25.3917 69.4618 26.0249 67.1652 26.0249C65.3838 26.0249 63.7955 25.6493 62.4004 24.8981C61.0267 24.1468 59.9535 23.0737 59.1809 21.6785C58.4082 20.2834 58.0218 18.6415 58.0218 16.7527Z" fill="black"/>
<path d="M77.5779 16.7527C77.5779 14.8854 77.9105 13.2542 78.5759 11.859C79.2627 10.4639 80.1857 9.39074 81.3447 8.63952C82.5252 7.8883 83.8344 7.51269 85.2725 7.51269C86.5174 7.51269 87.5905 7.75952 88.492 8.25318C89.3935 8.74684 90.091 9.4122 90.5847 10.2493V7.73805H96.8949V25.7995H90.5847V23.2883C90.091 24.1254 89.3827 24.7907 88.4598 25.2844C87.5583 25.7781 86.4959 26.0249 85.2725 26.0249C83.8344 26.0249 82.5252 25.6493 81.3447 24.8981C80.1857 24.1468 79.2627 23.0737 78.5759 21.6785C77.9105 20.262 77.5779 18.62 77.5779 16.7527ZM90.5847 16.7527C90.5847 15.5937 90.2627 14.6815 89.6188 14.0161C88.9964 13.3507 88.2237 13.0181 87.3008 13.0181C86.3564 13.0181 85.573 13.3507 84.9505 14.0161C84.3281 14.66 84.0169 15.5722 84.0169 16.7527C84.0169 17.9117 84.3281 18.8346 84.9505 19.5215C85.573 20.1868 86.3564 20.5195 87.3008 20.5195C88.2237 20.5195 88.9964 20.1868 89.6188 19.5215C90.2627 18.8561 90.5847 17.9332 90.5847 16.7527Z" fill="black"/>
<path d="M99.4605 16.7527C99.4605 14.8854 99.7932 13.2542 100.459 11.859C101.145 10.4639 102.079 9.39074 103.259 8.63952C104.44 7.8883 105.749 7.51269 107.187 7.51269C108.346 7.51269 109.377 7.75952 110.278 8.25318C111.201 8.72537 111.92 9.38001 112.435 10.2171V1.97513H118.778V25.7995H112.435V23.2883C111.941 24.1254 111.244 24.7907 110.342 25.2844C109.441 25.7781 108.379 26.0249 107.155 26.0249C105.717 26.0249 104.408 25.6493 103.227 24.8981C102.068 24.1468 101.145 23.0737 100.459 21.6785C99.7932 20.262 99.4605 18.62 99.4605 16.7527ZM112.467 16.7527C112.467 15.5937 112.145 14.6815 111.501 14.0161C110.879 13.3507 110.106 13.0181 109.183 13.0181C108.239 13.0181 107.456 13.3507 106.833 14.0161C106.211 14.66 105.899 15.5722 105.899 16.7527C105.899 17.9117 106.211 18.8346 106.833 19.5215C107.456 20.1868 108.239 20.5195 109.183 20.5195C110.106 20.5195 110.879 20.1868 111.501 19.5215C112.145 18.8561 112.467 17.9332 112.467 16.7527Z" fill="black"/>
<path d="M130.776 26.0249C128.973 26.0249 127.353 25.6493 125.915 24.8981C124.498 24.1468 123.382 23.0737 122.567 21.6785C121.751 20.2834 121.343 18.6415 121.343 16.7527C121.343 14.8854 121.751 13.2542 122.567 11.859C123.404 10.4639 124.53 9.39074 125.947 8.63952C127.385 7.8883 129.006 7.51269 130.808 7.51269C132.611 7.51269 134.221 7.8883 135.638 8.63952C137.076 9.39074 138.203 10.4639 139.018 11.859C139.855 13.2542 140.274 14.8854 140.274 16.7527C140.274 18.62 139.855 20.262 139.018 21.6785C138.203 23.0737 137.076 24.1468 135.638 24.8981C134.2 25.6493 132.579 26.0249 130.776 26.0249ZM130.776 20.5517C131.656 20.5517 132.386 20.2298 132.966 19.5859C133.567 18.9205 133.867 17.9761 133.867 16.7527C133.867 15.5293 133.567 14.5956 132.966 13.9517C132.386 13.3078 131.667 12.9859 130.808 12.9859C129.95 12.9859 129.231 13.3078 128.651 13.9517C128.072 14.5956 127.782 15.5293 127.782 16.7527C127.782 17.9976 128.061 18.942 128.619 19.5859C129.177 20.2298 129.896 20.5517 130.776 20.5517Z" fill="black"/>
<path d="M150.536 26.0249C148.905 26.0249 147.445 25.7566 146.157 25.22C144.891 24.662 143.882 23.9107 143.131 22.9664C142.401 22.0005 141.993 20.9166 141.907 19.7146H148.025C148.11 20.2942 148.379 20.7449 148.829 21.0668C149.28 21.3888 149.838 21.5498 150.504 21.5498C151.019 21.5498 151.426 21.4424 151.727 21.2278C152.027 21.0132 152.178 20.7342 152.178 20.3907C152.178 19.94 151.931 19.6073 151.437 19.3927C150.944 19.1781 150.128 18.942 148.99 18.6844C147.703 18.4268 146.629 18.1371 145.771 17.8151C144.912 17.4932 144.161 16.9673 143.517 16.2376C142.895 15.5078 142.584 14.5205 142.584 13.2756C142.584 12.2024 142.873 11.2366 143.453 10.3781C144.032 9.49805 144.88 8.80049 145.996 8.28537C147.134 7.77025 148.497 7.51269 150.085 7.51269C152.446 7.51269 154.303 8.0922 155.655 9.25123C157.007 10.4103 157.79 11.9342 158.005 13.8229H152.307C152.199 13.2434 151.942 12.8034 151.534 12.5029C151.147 12.181 150.622 12.02 149.956 12.02C149.441 12.02 149.044 12.1166 148.765 12.3098C148.507 12.5029 148.379 12.7712 148.379 13.1146C148.379 13.5439 148.626 13.8766 149.119 14.1127C149.613 14.3273 150.407 14.5527 151.502 14.7888C152.811 15.0678 153.895 15.379 154.753 15.7224C155.633 16.0659 156.395 16.6239 157.039 17.3966C157.705 18.1478 158.037 19.1781 158.037 20.4873C158.037 21.539 157.726 22.4834 157.104 23.3205C156.503 24.1576 155.633 24.8229 154.496 25.3166C153.38 25.7888 152.06 26.0249 150.536 26.0249Z" fill="black"/>
<path d="M5.76764 16.7527C5.76764 14.8854 6.10032 13.2542 6.76569 11.859C7.45252 10.4639 8.37544 9.39074 9.53447 8.63952C10.715 7.8883 12.0242 7.51269 13.4623 7.51269C14.7072 7.51269 15.7803 7.75952 16.6818 8.25318C17.5833 8.74684 18.2808 9.4122 18.7745 10.2493V7.73805H25.0847V25.7995H18.7745V23.2883C18.2808 24.1254 17.5725 24.7907 16.6496 25.2844C15.7481 25.7781 14.6857 26.0249 13.4623 26.0249C12.0242 26.0249 10.715 25.6493 9.53447 24.8981C8.37544 24.1468 7.45252 23.0737 6.76569 21.6785C6.10032 20.262 5.76764 18.62 5.76764 16.7527ZM18.7745 16.7527C18.7745 15.5937 18.4525 14.6815 17.8086 14.0161C17.1862 13.3507 16.4135 13.0181 15.4906 13.0181C14.5462 13.0181 13.7628 13.3507 13.1403 14.0161C12.5179 14.66 12.2067 15.5722 12.2067 16.7527C12.2067 17.9117 12.5179 18.8346 13.1403 19.5215C13.7628 20.1868 14.5462 20.5195 15.4906 20.5195C16.4135 20.5195 17.1862 20.1868 17.8086 19.5215C18.4525 18.8561 18.7745 17.9332 18.7745 16.7527Z" stroke="black" stroke-width="2" mask="url(#path-1-outside-1_812_79)"/>
<path d="M34.9907 1.97513V25.7995H28.6805V1.97513H34.9907Z" stroke="black" stroke-width="2" mask="url(#path-1-outside-1_812_79)"/>
<path d="M46.9872 26.0249C45.1843 26.0249 43.5638 25.6493 42.1257 24.8981C40.7092 24.1468 39.5931 23.0737 38.7775 21.6785C37.9618 20.2834 37.554 18.6415 37.554 16.7527C37.554 14.8854 37.9618 13.2542 38.7775 11.859C39.6145 10.4639 40.7414 9.39074 42.1579 8.63952C43.596 7.8883 45.2165 7.51269 47.0194 7.51269C48.8223 7.51269 50.4321 7.8883 51.8487 8.63952C53.2867 9.39074 54.4135 10.4639 55.2292 11.859C56.0662 13.2542 56.4848 14.8854 56.4848 16.7527C56.4848 18.62 56.0662 20.262 55.2292 21.6785C54.4135 23.0737 53.2867 24.1468 51.8487 24.8981C50.4106 25.6493 48.7901 26.0249 46.9872 26.0249ZM46.9872 20.5517C47.8672 20.5517 48.597 20.2298 49.1765 19.5859C49.7775 18.9205 50.0779 17.9761 50.0779 16.7527C50.0779 15.5293 49.7775 14.5956 49.1765 13.9517C48.597 13.3078 47.8779 12.9859 47.0194 12.9859C46.1609 12.9859 45.4418 13.3078 44.8623 13.9517C44.2828 14.5956 43.9931 15.5293 43.9931 16.7527C43.9931 17.9976 44.2721 18.942 44.8301 19.5859C45.3882 20.2298 46.1072 20.5517 46.9872 20.5517Z" stroke="black" stroke-width="2" mask="url(#path-1-outside-1_812_79)"/>
<path d="M58.0218 16.7527C58.0218 14.8854 58.4082 13.2542 59.1809 11.859C59.9535 10.4639 61.0267 9.39074 62.4004 8.63952C63.7955 7.8883 65.3838 7.51269 67.1652 7.51269C69.4618 7.51269 71.3935 8.14586 72.9604 9.4122C74.5272 10.6571 75.536 12.4063 75.9867 14.66H69.2901C68.9038 13.4795 68.1526 12.8893 67.0365 12.8893C66.2423 12.8893 65.6091 13.222 65.137 13.8873C64.6862 14.5312 64.4609 15.4864 64.4609 16.7527C64.4609 18.019 64.6862 18.9849 65.137 19.6503C65.6091 20.3156 66.2423 20.6483 67.0365 20.6483C68.174 20.6483 68.9253 20.0581 69.2901 18.8776H75.9867C75.536 21.1098 74.5272 22.859 72.9604 24.1254C71.3935 25.3917 69.4618 26.0249 67.1652 26.0249C65.3838 26.0249 63.7955 25.6493 62.4004 24.8981C61.0267 24.1468 59.9535 23.0737 59.1809 21.6785C58.4082 20.2834 58.0218 18.6415 58.0218 16.7527Z" stroke="black" stroke-width="2" mask="url(#path-1-outside-1_812_79)"/>
<path d="M77.5779 16.7527C77.5779 14.8854 77.9105 13.2542 78.5759 11.859C79.2627 10.4639 80.1857 9.39074 81.3447 8.63952C82.5252 7.8883 83.8344 7.51269 85.2725 7.51269C86.5174 7.51269 87.5905 7.75952 88.492 8.25318C89.3935 8.74684 90.091 9.4122 90.5847 10.2493V7.73805H96.8949V25.7995H90.5847V23.2883C90.091 24.1254 89.3827 24.7907 88.4598 25.2844C87.5583 25.7781 86.4959 26.0249 85.2725 26.0249C83.8344 26.0249 82.5252 25.6493 81.3447 24.8981C80.1857 24.1468 79.2627 23.0737 78.5759 21.6785C77.9105 20.262 77.5779 18.62 77.5779 16.7527ZM90.5847 16.7527C90.5847 15.5937 90.2627 14.6815 89.6188 14.0161C88.9964 13.3507 88.2237 13.0181 87.3008 13.0181C86.3564 13.0181 85.573 13.3507 84.9505 14.0161C84.3281 14.66 84.0169 15.5722 84.0169 16.7527C84.0169 17.9117 84.3281 18.8346 84.9505 19.5215C85.573 20.1868 86.3564 20.5195 87.3008 20.5195C88.2237 20.5195 88.9964 20.1868 89.6188 19.5215C90.2627 18.8561 90.5847 17.9332 90.5847 16.7527Z" stroke="black" stroke-width="2" mask="url(#path-1-outside-1_812_79)"/>
<path d="M99.4605 16.7527C99.4605 14.8854 99.7932 13.2542 100.459 11.859C101.145 10.4639 102.079 9.39074 103.259 8.63952C104.44 7.8883 105.749 7.51269 107.187 7.51269C108.346 7.51269 109.377 7.75952 110.278 8.25318C111.201 8.72537 111.92 9.38001 112.435 10.2171V1.97513H118.778V25.7995H112.435V23.2883C111.941 24.1254 111.244 24.7907 110.342 25.2844C109.441 25.7781 108.379 26.0249 107.155 26.0249C105.717 26.0249 104.408 25.6493 103.227 24.8981C102.068 24.1468 101.145 23.0737 100.459 21.6785C99.7932 20.262 99.4605 18.62 99.4605 16.7527ZM112.467 16.7527C112.467 15.5937 112.145 14.6815 111.501 14.0161C110.879 13.3507 110.106 13.0181 109.183 13.0181C108.239 13.0181 107.456 13.3507 106.833 14.0161C106.211 14.66 105.899 15.5722 105.899 16.7527C105.899 17.9117 106.211 18.8346 106.833 19.5215C107.456 20.1868 108.239 20.5195 109.183 20.5195C110.106 20.5195 110.879 20.1868 111.501 19.5215C112.145 18.8561 112.467 17.9332 112.467 16.7527Z" stroke="black" stroke-width="2" mask="url(#path-1-outside-1_812_79)"/>
<path d="M130.776 26.0249C128.973 26.0249 127.353 25.6493 125.915 24.8981C124.498 24.1468 123.382 23.0737 122.567 21.6785C121.751 20.2834 121.343 18.6415 121.343 16.7527C121.343 14.8854 121.751 13.2542 122.567 11.859C123.404 10.4639 124.53 9.39074 125.947 8.63952C127.385 7.8883 129.006 7.51269 130.808 7.51269C132.611 7.51269 134.221 7.8883 135.638 8.63952C137.076 9.39074 138.203 10.4639 139.018 11.859C139.855 13.2542 140.274 14.8854 140.274 16.7527C140.274 18.62 139.855 20.262 139.018 21.6785C138.203 23.0737 137.076 24.1468 135.638 24.8981C134.2 25.6493 132.579 26.0249 130.776 26.0249ZM130.776 20.5517C131.656 20.5517 132.386 20.2298 132.966 19.5859C133.567 18.9205 133.867 17.9761 133.867 16.7527C133.867 15.5293 133.567 14.5956 132.966 13.9517C132.386 13.3078 131.667 12.9859 130.808 12.9859C129.95 12.9859 129.231 13.3078 128.651 13.9517C128.072 14.5956 127.782 15.5293 127.782 16.7527C127.782 17.9976 128.061 18.942 128.619 19.5859C129.177 20.2298 129.896 20.5517 130.776 20.5517Z" stroke="black" stroke-width="2" mask="url(#path-1-outside-1_812_79)"/>
<path d="M150.536 26.0249C148.905 26.0249 147.445 25.7566 146.157 25.22C144.891 24.662 143.882 23.9107 143.131 22.9664C142.401 22.0005 141.993 20.9166 141.907 19.7146H148.025C148.11 20.2942 148.379 20.7449 148.829 21.0668C149.28 21.3888 149.838 21.5498 150.504 21.5498C151.019 21.5498 151.426 21.4424 151.727 21.2278C152.027 21.0132 152.178 20.7342 152.178 20.3907C152.178 19.94 151.931 19.6073 151.437 19.3927C150.944 19.1781 150.128 18.942 148.99 18.6844C147.703 18.4268 146.629 18.1371 145.771 17.8151C144.912 17.4932 144.161 16.9673 143.517 16.2376C142.895 15.5078 142.584 14.5205 142.584 13.2756C142.584 12.2024 142.873 11.2366 143.453 10.3781C144.032 9.49805 144.88 8.80049 145.996 8.28537C147.134 7.77025 148.497 7.51269 150.085 7.51269C152.446 7.51269 154.303 8.0922 155.655 9.25123C157.007 10.4103 157.79 11.9342 158.005 13.8229H152.307C152.199 13.2434 151.942 12.8034 151.534 12.5029C151.147 12.181 150.622 12.02 149.956 12.02C149.441 12.02 149.044 12.1166 148.765 12.3098C148.507 12.5029 148.379 12.7712 148.379 13.1146C148.379 13.5439 148.626 13.8766 149.119 14.1127C149.613 14.3273 150.407 14.5527 151.502 14.7888C152.811 15.0678 153.895 15.379 154.753 15.7224C155.633 16.0659 156.395 16.6239 157.039 17.3966C157.705 18.1478 158.037 19.1781 158.037 20.4873C158.037 21.539 157.726 22.4834 157.104 23.3205C156.503 24.1576 155.633 24.8229 154.496 25.3166C153.38 25.7888 152.06 26.0249 150.536 26.0249Z" stroke="black" stroke-width="2" mask="url(#path-1-outside-1_812_79)"/>
</g>
<defs>
<filter id="filter0_d_812_79" x="0.767639" y="0.975128" width="162.357" height="34.0497" filterUnits="userSpaceOnUse" color-interpolation-filters="sRGB">
<feFlood flood-opacity="0" result="BackgroundImageFix"/>
<feColorMatrix in="SourceAlpha" type="matrix" values="0 0 0 0 0 0 0 0 0 0 0 0 0 0 0 0 0 0 127 0" result="hardAlpha"/>
<feOffset dy="4"/>
<feGaussianBlur stdDeviation="2"/>
<feComposite in2="hardAlpha" operator="out"/>
<feColorMatrix type="matrix" values="0 0 0 0 0 0 0 0 0 0 0 0 0 0 0 0 0 0 0.25 0"/>
<feBlend mode="normal" in2="BackgroundImageFix" result="effect1_dropShadow_812_79"/>
<feBlend mode="normal" in="SourceGraphic" in2="effect1_dropShadow_812_79" result="shape"/>
</filter>
</defs>
</svg>
